<mxfile host="65bd71144e" pages="3">
    <diagram name="Page-1" id="CgaNINiDJZVQPjz6fPRD">
        <mxGraphModel dx="1183" dy="1187" grid="0" gridSize="10" guides="1" tooltips="1" connect="1" arrows="1" fold="1" page="0" pageScale="1" pageWidth="850" pageHeight="1100" math="0" shadow="0">
            <root>
                <mxCell id="0"/>
                <mxCell id="1" parent="0"/>
                <mxCell id="wBLi3W2BOtY_wwohtQ6w-1" value="Actor" style="shape=umlActor;verticalLabelPosition=bottom;verticalAlign=top;html=1;outlineConnect=0;" parent="1" vertex="1">
                    <mxGeometry x="243" y="170" width="30" height="60" as="geometry"/>
                </mxCell>
                <mxCell id="wBLi3W2BOtY_wwohtQ6w-3" value="book" style="ellipse;shape=cloud;whiteSpace=wrap;html=1;" parent="1" vertex="1">
                    <mxGeometry x="-74" y="-27" width="120" height="80" as="geometry"/>
                </mxCell>
                <mxCell id="wBLi3W2BOtY_wwohtQ6w-4" value="Author" style="ellipse;shape=cloud;whiteSpace=wrap;html=1;" parent="1" vertex="1">
                    <mxGeometry x="41" y="-40" width="120" height="80" as="geometry"/>
                </mxCell>
            </root>
        </mxGraphModel>
    </diagram>
    <diagram id="QiePVO-FgarlyKmCR7SI" name="Page-2">
        <mxGraphModel dx="2656" dy="1187" grid="0" gridSize="10" guides="1" tooltips="1" connect="1" arrows="1" fold="1" page="0" pageScale="1" pageWidth="850" pageHeight="1100" math="0" shadow="0">
            <root>
                <mxCell id="0"/>
                <mxCell id="1" parent="0"/>
                <mxCell id="wSZ0m00_1iT_btW947zj-1" value="book" style="rounded=1;whiteSpace=wrap;html=1;" parent="1" vertex="1">
                    <mxGeometry x="-697" y="63" width="120" height="60" as="geometry"/>
                </mxCell>
                <mxCell id="wSZ0m00_1iT_btW947zj-4" value="author" style="rounded=1;whiteSpace=wrap;html=1;" parent="1" vertex="1">
                    <mxGeometry x="-142" y="3" width="120" height="60" as="geometry"/>
                </mxCell>
                <mxCell id="wSZ0m00_1iT_btW947zj-17" style="edgeStyle=none;curved=1;rounded=0;orthogonalLoop=1;jettySize=auto;html=1;exitX=0.5;exitY=1;exitDx=0;exitDy=0;fontSize=12;startSize=8;endSize=8;" parent="1" source="wSZ0m00_1iT_btW947zj-8" target="wSZ0m00_1iT_btW947zj-1" edge="1">
                    <mxGeometry relative="1" as="geometry"/>
                </mxCell>
                <mxCell id="wSZ0m00_1iT_btW947zj-8" value="title" style="ellipse;whiteSpace=wrap;html=1;" parent="1" vertex="1">
                    <mxGeometry x="-751" y="-72" width="120" height="35" as="geometry"/>
                </mxCell>
                <mxCell id="wSZ0m00_1iT_btW947zj-18" style="edgeStyle=none;curved=1;rounded=0;orthogonalLoop=1;jettySize=auto;html=1;exitX=0.5;exitY=1;exitDx=0;exitDy=0;entryX=0.5;entryY=0;entryDx=0;entryDy=0;fontSize=12;startSize=8;endSize=8;" parent="1" source="wSZ0m00_1iT_btW947zj-9" target="wSZ0m00_1iT_btW947zj-1" edge="1">
                    <mxGeometry relative="1" as="geometry"/>
                </mxCell>
                <mxCell id="wSZ0m00_1iT_btW947zj-9" value="description" style="ellipse;whiteSpace=wrap;html=1;" parent="1" vertex="1">
                    <mxGeometry x="-604" y="-52" width="120" height="35" as="geometry"/>
                </mxCell>
                <mxCell id="wSZ0m00_1iT_btW947zj-16" style="edgeStyle=none;curved=1;rounded=0;orthogonalLoop=1;jettySize=auto;html=1;exitX=0.5;exitY=1;exitDx=0;exitDy=0;entryX=0;entryY=0.5;entryDx=0;entryDy=0;fontSize=12;startSize=8;endSize=8;" parent="1" source="wSZ0m00_1iT_btW947zj-10" target="wSZ0m00_1iT_btW947zj-1" edge="1">
                    <mxGeometry relative="1" as="geometry"/>
                </mxCell>
                <mxCell id="wSZ0m00_1iT_btW947zj-10" value="purchase_date" style="ellipse;whiteSpace=wrap;html=1;" parent="1" vertex="1">
                    <mxGeometry x="-871" y="-17" width="120" height="35" as="geometry"/>
                </mxCell>
                <mxCell id="wSZ0m00_1iT_btW947zj-26" style="edgeStyle=none;curved=1;rounded=0;orthogonalLoop=1;jettySize=auto;html=1;exitX=0.5;exitY=1;exitDx=0;exitDy=0;fontSize=12;startSize=8;endSize=8;" parent="1" source="wSZ0m00_1iT_btW947zj-19" target="wSZ0m00_1iT_btW947zj-4" edge="1">
                    <mxGeometry relative="1" as="geometry"/>
                </mxCell>
                <mxCell id="wSZ0m00_1iT_btW947zj-19" value="name" style="ellipse;whiteSpace=wrap;html=1;" parent="1" vertex="1">
                    <mxGeometry x="-17" y="-89" width="120" height="35" as="geometry"/>
                </mxCell>
                <mxCell id="wSZ0m00_1iT_btW947zj-25" style="edgeStyle=none;curved=1;rounded=0;orthogonalLoop=1;jettySize=auto;html=1;exitX=0.5;exitY=1;exitDx=0;exitDy=0;fontSize=12;startSize=8;endSize=8;" parent="1" source="wSZ0m00_1iT_btW947zj-20" edge="1">
                    <mxGeometry relative="1" as="geometry">
                        <mxPoint x="-129" y="10" as="targetPoint"/>
                    </mxGeometry>
                </mxCell>
                <mxCell id="wSZ0m00_1iT_btW947zj-20" value="age" style="ellipse;whiteSpace=wrap;html=1;" parent="1" vertex="1">
                    <mxGeometry x="-158" y="-110" width="120" height="35" as="geometry"/>
                </mxCell>
                <mxCell id="wSZ0m00_1iT_btW947zj-24" style="edgeStyle=none;curved=1;rounded=0;orthogonalLoop=1;jettySize=auto;html=1;exitX=0.5;exitY=1;exitDx=0;exitDy=0;fontSize=12;startSize=8;endSize=8;" parent="1" source="wSZ0m00_1iT_btW947zj-21" target="wSZ0m00_1iT_btW947zj-4" edge="1">
                    <mxGeometry relative="1" as="geometry"/>
                </mxCell>
                <mxCell id="wSZ0m00_1iT_btW947zj-21" value="author.id" style="ellipse;whiteSpace=wrap;html=1;" parent="1" vertex="1">
                    <mxGeometry x="-324" y="-113" width="120" height="35" as="geometry"/>
                </mxCell>
                <mxCell id="wSZ0m00_1iT_btW947zj-23" style="edgeStyle=none;curved=1;rounded=0;orthogonalLoop=1;jettySize=auto;html=1;exitX=0.5;exitY=1;exitDx=0;exitDy=0;fontSize=12;startSize=8;endSize=8;" parent="1" source="wSZ0m00_1iT_btW947zj-22" target="wSZ0m00_1iT_btW947zj-1" edge="1">
                    <mxGeometry relative="1" as="geometry"/>
                </mxCell>
                <mxCell id="wSZ0m00_1iT_btW947zj-22" value="book.id" style="ellipse;whiteSpace=wrap;html=1;" parent="1" vertex="1">
                    <mxGeometry x="-621" y="-133" width="120" height="35" as="geometry"/>
                </mxCell>
                <mxCell id="wSZ0m00_1iT_btW947zj-27" value="Details" style="rounded=1;whiteSpace=wrap;html=1;" parent="1" vertex="1">
                    <mxGeometry x="103" y="25" width="120" height="60" as="geometry"/>
                </mxCell>
                <mxCell id="wSZ0m00_1iT_btW947zj-36" style="edgeStyle=none;curved=1;rounded=0;orthogonalLoop=1;jettySize=auto;html=1;exitX=0.5;exitY=1;exitDx=0;exitDy=0;fontSize=12;startSize=8;endSize=8;" parent="1" source="wSZ0m00_1iT_btW947zj-31" target="wSZ0m00_1iT_btW947zj-27" edge="1">
                    <mxGeometry relative="1" as="geometry"/>
                </mxCell>
                <mxCell id="wSZ0m00_1iT_btW947zj-31" value="details.id" style="ellipse;whiteSpace=wrap;html=1;" parent="1" vertex="1">
                    <mxGeometry x="165" y="-37" width="120" height="35" as="geometry"/>
                </mxCell>
                <mxCell id="wSZ0m00_1iT_btW947zj-37" style="edgeStyle=none;curved=1;rounded=0;orthogonalLoop=1;jettySize=auto;html=1;exitX=0;exitY=0.5;exitDx=0;exitDy=0;entryX=1;entryY=0.5;entryDx=0;entryDy=0;fontSize=12;startSize=8;endSize=8;" parent="1" source="wSZ0m00_1iT_btW947zj-34" target="wSZ0m00_1iT_btW947zj-27" edge="1">
                    <mxGeometry relative="1" as="geometry"/>
                </mxCell>
                <mxCell id="wSZ0m00_1iT_btW947zj-34" value="description" style="ellipse;whiteSpace=wrap;html=1;" parent="1" vertex="1">
                    <mxGeometry x="271" y="42" width="120" height="35" as="geometry"/>
                </mxCell>
                <mxCell id="wSZ0m00_1iT_btW947zj-44" style="edgeStyle=none;curved=1;rounded=0;orthogonalLoop=1;jettySize=auto;html=1;exitX=0;exitY=0.5;exitDx=0;exitDy=0;entryX=1;entryY=0.5;entryDx=0;entryDy=0;fontSize=12;startSize=8;endSize=8;" parent="1" source="wSZ0m00_1iT_btW947zj-42" target="wSZ0m00_1iT_btW947zj-1" edge="1">
                    <mxGeometry relative="1" as="geometry"/>
                </mxCell>
                <mxCell id="wSZ0m00_1iT_btW947zj-42" value="written by" style="rhombus;whiteSpace=wrap;html=1;" parent="1" vertex="1">
                    <mxGeometry x="-399" y="18" width="80" height="80" as="geometry"/>
                </mxCell>
                <mxCell id="wSZ0m00_1iT_btW947zj-43" style="edgeStyle=none;curved=1;rounded=0;orthogonalLoop=1;jettySize=auto;html=1;exitX=0;exitY=0.5;exitDx=0;exitDy=0;entryX=0.938;entryY=0.613;entryDx=0;entryDy=0;entryPerimeter=0;fontSize=12;startSize=8;endSize=8;" parent="1" source="wSZ0m00_1iT_btW947zj-4" target="wSZ0m00_1iT_btW947zj-42" edge="1">
                    <mxGeometry relative="1" as="geometry"/>
                </mxCell>
                <mxCell id="wSZ0m00_1iT_btW947zj-72" style="edgeStyle=none;curved=1;rounded=0;orthogonalLoop=1;jettySize=auto;html=1;exitX=0;exitY=0.5;exitDx=0;exitDy=0;fontSize=12;startSize=8;endSize=8;" parent="1" source="wSZ0m00_1iT_btW947zj-70" target="wSZ0m00_1iT_btW947zj-1" edge="1">
                    <mxGeometry relative="1" as="geometry"/>
                </mxCell>
                <mxCell id="l50XCz_K2loluwkFP1aF-5" style="edgeStyle=none;curved=1;rounded=0;orthogonalLoop=1;jettySize=auto;html=1;exitX=1;exitY=1;exitDx=0;exitDy=0;entryX=0;entryY=0.75;entryDx=0;entryDy=0;fontSize=12;startSize=8;endSize=8;" parent="1" source="wSZ0m00_1iT_btW947zj-70" target="l50XCz_K2loluwkFP1aF-2" edge="1">
                    <mxGeometry relative="1" as="geometry"/>
                </mxCell>
                <mxCell id="wSZ0m00_1iT_btW947zj-70" value="has" style="rhombus;whiteSpace=wrap;html=1;" parent="1" vertex="1">
                    <mxGeometry x="-295" y="105" width="80" height="80" as="geometry"/>
                </mxCell>
                <mxCell id="wSZ0m00_1iT_btW947zj-71" style="edgeStyle=none;curved=1;rounded=0;orthogonalLoop=1;jettySize=auto;html=1;exitX=0;exitY=0.5;exitDx=0;exitDy=0;entryX=0.913;entryY=0.538;entryDx=0;entryDy=0;entryPerimeter=0;fontSize=12;startSize=8;endSize=8;" parent="1" source="wSZ0m00_1iT_btW947zj-27" target="wSZ0m00_1iT_btW947zj-70" edge="1">
                    <mxGeometry relative="1" as="geometry"/>
                </mxCell>
                <mxCell id="l50XCz_K2loluwkFP1aF-6" style="edgeStyle=none;curved=1;rounded=0;orthogonalLoop=1;jettySize=auto;html=1;exitX=0;exitY=0.5;exitDx=0;exitDy=0;fontSize=12;startSize=8;endSize=8;" parent="1" source="l50XCz_K2loluwkFP1aF-1" target="l50XCz_K2loluwkFP1aF-2" edge="1">
                    <mxGeometry relative="1" as="geometry"/>
                </mxCell>
                <mxCell id="l50XCz_K2loluwkFP1aF-1" value="tchapters.id" style="ellipse;whiteSpace=wrap;html=1;" parent="1" vertex="1">
                    <mxGeometry x="217" y="145" width="120" height="35" as="geometry"/>
                </mxCell>
                <mxCell id="l50XCz_K2loluwkFP1aF-2" value="Chapters" style="rounded=1;whiteSpace=wrap;html=1;" parent="1" vertex="1">
                    <mxGeometry x="53" y="195" width="120" height="60" as="geometry"/>
                </mxCell>
                <mxCell id="l50XCz_K2loluwkFP1aF-7" style="edgeStyle=none;curved=1;rounded=0;orthogonalLoop=1;jettySize=auto;html=1;exitX=0;exitY=0.5;exitDx=0;exitDy=0;entryX=1;entryY=0.75;entryDx=0;entryDy=0;fontSize=12;startSize=8;endSize=8;" parent="1" source="l50XCz_K2loluwkFP1aF-3" target="l50XCz_K2loluwkFP1aF-2" edge="1">
                    <mxGeometry relative="1" as="geometry"/>
                </mxCell>
                <mxCell id="l50XCz_K2loluwkFP1aF-3" value="chapter_size" style="ellipse;whiteSpace=wrap;html=1;" parent="1" vertex="1">
                    <mxGeometry x="207" y="213" width="120" height="35" as="geometry"/>
                </mxCell>
                <mxCell id="l50XCz_K2loluwkFP1aF-10" style="edgeStyle=none;curved=1;rounded=0;orthogonalLoop=1;jettySize=auto;html=1;exitX=0;exitY=0;exitDx=0;exitDy=0;entryX=0.75;entryY=1;entryDx=0;entryDy=0;fontSize=12;startSize=8;endSize=8;" parent="1" source="l50XCz_K2loluwkFP1aF-8" target="l50XCz_K2loluwkFP1aF-2" edge="1">
                    <mxGeometry relative="1" as="geometry"/>
                </mxCell>
                <mxCell id="l50XCz_K2loluwkFP1aF-8" value="reading_start" style="ellipse;whiteSpace=wrap;html=1;" parent="1" vertex="1">
                    <mxGeometry x="162" y="286" width="120" height="35" as="geometry"/>
                </mxCell>
                <mxCell id="l50XCz_K2loluwkFP1aF-9" value="reading_end" style="ellipse;whiteSpace=wrap;html=1;" parent="1" vertex="1">
                    <mxGeometry x="36" y="303" width="120" height="35" as="geometry"/>
                </mxCell>
                <mxCell id="l50XCz_K2loluwkFP1aF-11" style="edgeStyle=none;curved=1;rounded=0;orthogonalLoop=1;jettySize=auto;html=1;exitX=0.5;exitY=0;exitDx=0;exitDy=0;entryX=0.408;entryY=0.933;entryDx=0;entryDy=0;entryPerimeter=0;fontSize=12;startSize=8;endSize=8;" parent="1" source="l50XCz_K2loluwkFP1aF-9" target="l50XCz_K2loluwkFP1aF-2" edge="1">
                    <mxGeometry relative="1" as="geometry"/>
                </mxCell>
            </root>
        </mxGraphModel>
    </diagram>
    <diagram id="_rZfdu6thN0A_FSXWVxJ" name="Page-3">
        <mxGraphModel dx="1856" dy="1187" grid="0" gridSize="10" guides="1" tooltips="1" connect="1" arrows="1" fold="1" page="0" pageScale="1" pageWidth="850" pageHeight="1100" math="0" shadow="0">
            <root>
                <mxCell id="0"/>
                <mxCell id="1" parent="0"/>
                <mxCell id="Av41f5-6clXpNRG19j9W-1" value="Author" style="swimlane;fontStyle=1;align=center;verticalAlign=top;childLayout=stackLayout;horizontal=1;startSize=26;horizontalStack=0;resizeParent=1;resizeParentMax=0;resizeLast=0;collapsible=1;marginBottom=0;whiteSpace=wrap;html=1;" parent="1" vertex="1">
                    <mxGeometry x="-70" y="-126" width="160" height="138" as="geometry"/>
                </mxCell>
                <mxCell id="Av41f5-6clXpNRG19j9W-2" value="author.id: int" style="text;strokeColor=none;fillColor=none;align=left;verticalAlign=top;spacingLeft=4;spacingRight=4;overflow=hidden;rotatable=0;points=[[0,0.5],[1,0.5]];portConstraint=eastwest;whiteSpace=wrap;html=1;" parent="Av41f5-6clXpNRG19j9W-1" vertex="1">
                    <mxGeometry y="26" width="160" height="26" as="geometry"/>
                </mxCell>
                <mxCell id="Av41f5-6clXpNRG19j9W-3" value="" style="line;strokeWidth=1;fillColor=none;align=left;verticalAlign=middle;spacingTop=-1;spacingLeft=3;spacingRight=3;rotatable=0;labelPosition=right;points=[];portConstraint=eastwest;strokeColor=inherit;" parent="Av41f5-6clXpNRG19j9W-1" vertex="1">
                    <mxGeometry y="52" width="160" height="8" as="geometry"/>
                </mxCell>
                <mxCell id="Av41f5-6clXpNRG19j9W-4" value="age: int" style="text;strokeColor=none;fillColor=none;align=left;verticalAlign=top;spacingLeft=4;spacingRight=4;overflow=hidden;rotatable=0;points=[[0,0.5],[1,0.5]];portConstraint=eastwest;whiteSpace=wrap;html=1;" parent="Av41f5-6clXpNRG19j9W-1" vertex="1">
                    <mxGeometry y="60" width="160" height="26" as="geometry"/>
                </mxCell>
                <mxCell id="Av41f5-6clXpNRG19j9W-5" value="name:varchar(20)" style="text;strokeColor=none;fillColor=none;align=left;verticalAlign=top;spacingLeft=4;spacingRight=4;overflow=hidden;rotatable=0;points=[[0,0.5],[1,0.5]];portConstraint=eastwest;whiteSpace=wrap;html=1;" parent="Av41f5-6clXpNRG19j9W-1" vertex="1">
                    <mxGeometry y="86" width="160" height="26" as="geometry"/>
                </mxCell>
                <mxCell id="jr5ZodqF5-wsXopnZQ06-11" value="fk chapter_id" style="text;strokeColor=none;fillColor=none;align=left;verticalAlign=top;spacingLeft=4;spacingRight=4;overflow=hidden;rotatable=0;points=[[0,0.5],[1,0.5]];portConstraint=eastwest;whiteSpace=wrap;html=1;" parent="Av41f5-6clXpNRG19j9W-1" vertex="1">
                    <mxGeometry y="112" width="160" height="26" as="geometry"/>
                </mxCell>
                <mxCell id="-_k3XHcYi2xZkaorIbSq-1" value="Chapters" style="swimlane;fontStyle=1;align=center;verticalAlign=top;childLayout=stackLayout;horizontal=1;startSize=26;horizontalStack=0;resizeParent=1;resizeParentMax=0;resizeLast=0;collapsible=1;marginBottom=0;whiteSpace=wrap;html=1;" parent="1" vertex="1">
                    <mxGeometry x="270" y="-115" width="160" height="138" as="geometry"/>
                </mxCell>
                <mxCell id="-_k3XHcYi2xZkaorIbSq-2" value="chapters.id: int" style="text;strokeColor=none;fillColor=none;align=left;verticalAlign=top;spacingLeft=4;spacingRight=4;overflow=hidden;rotatable=0;points=[[0,0.5],[1,0.5]];portConstraint=eastwest;whiteSpace=wrap;html=1;" parent="-_k3XHcYi2xZkaorIbSq-1" vertex="1">
                    <mxGeometry y="26" width="160" height="26" as="geometry"/>
                </mxCell>
                <mxCell id="-_k3XHcYi2xZkaorIbSq-3" value="" style="line;strokeWidth=1;fillColor=none;align=left;verticalAlign=middle;spacingTop=-1;spacingLeft=3;spacingRight=3;rotatable=0;labelPosition=right;points=[];portConstraint=eastwest;strokeColor=inherit;" parent="-_k3XHcYi2xZkaorIbSq-1" vertex="1">
                    <mxGeometry y="52" width="160" height="8" as="geometry"/>
                </mxCell>
                <mxCell id="-_k3XHcYi2xZkaorIbSq-5" value="reading_start: int" style="text;strokeColor=none;fillColor=none;align=left;verticalAlign=top;spacingLeft=4;spacingRight=4;overflow=hidden;rotatable=0;points=[[0,0.5],[1,0.5]];portConstraint=eastwest;whiteSpace=wrap;html=1;" parent="-_k3XHcYi2xZkaorIbSq-1" vertex="1">
                    <mxGeometry y="60" width="160" height="26" as="geometry"/>
                </mxCell>
                <mxCell id="sB6mpCw5xl5ikYD1QfRA-1" value="reading_end: int" style="text;strokeColor=none;fillColor=none;align=left;verticalAlign=top;spacingLeft=4;spacingRight=4;overflow=hidden;rotatable=0;points=[[0,0.5],[1,0.5]];portConstraint=eastwest;whiteSpace=wrap;html=1;" parent="-_k3XHcYi2xZkaorIbSq-1" vertex="1">
                    <mxGeometry y="86" width="160" height="26" as="geometry"/>
                </mxCell>
                <mxCell id="sB6mpCw5xl5ikYD1QfRA-2" value="chapter_size: int" style="text;strokeColor=none;fillColor=none;align=left;verticalAlign=top;spacingLeft=4;spacingRight=4;overflow=hidden;rotatable=0;points=[[0,0.5],[1,0.5]];portConstraint=eastwest;whiteSpace=wrap;html=1;" parent="-_k3XHcYi2xZkaorIbSq-1" vertex="1">
                    <mxGeometry y="112" width="160" height="26" as="geometry"/>
                </mxCell>
                <mxCell id="jr5ZodqF5-wsXopnZQ06-19" style="edgeStyle=none;curved=1;rounded=0;orthogonalLoop=1;jettySize=auto;html=1;exitX=0;exitY=0.5;exitDx=0;exitDy=0;fontSize=12;startSize=8;endSize=8;entryX=0;entryY=0.5;entryDx=0;entryDy=0;" parent="1" source="Av41f5-6clXpNRG19j9W-2" target="p-fpa5ibMZ4aYoW1wyBz-1" edge="1">
                    <mxGeometry relative="1" as="geometry">
                        <mxPoint x="33" y="237" as="targetPoint"/>
                        <Array as="points">
                            <mxPoint x="-188" y="67"/>
                        </Array>
                    </mxGeometry>
                </mxCell>
                <mxCell id="jr5ZodqF5-wsXopnZQ06-21" value="Book" style="swimlane;fontStyle=1;align=center;verticalAlign=top;childLayout=stackLayout;horizontal=1;startSize=26;horizontalStack=0;resizeParent=1;resizeParentMax=0;resizeLast=0;collapsible=1;marginBottom=0;whiteSpace=wrap;html=1;" parent="1" vertex="1">
                    <mxGeometry x="57" y="132" width="160" height="164" as="geometry"/>
                </mxCell>
                <mxCell id="jr5ZodqF5-wsXopnZQ06-22" value="book.id" style="text;strokeColor=none;fillColor=none;align=left;verticalAlign=top;spacingLeft=4;spacingRight=4;overflow=hidden;rotatable=0;points=[[0,0.5],[1,0.5]];portConstraint=eastwest;whiteSpace=wrap;html=1;" parent="jr5ZodqF5-wsXopnZQ06-21" vertex="1">
                    <mxGeometry y="26" width="160" height="26" as="geometry"/>
                </mxCell>
                <mxCell id="jr5ZodqF5-wsXopnZQ06-23" value="" style="line;strokeWidth=1;fillColor=none;align=left;verticalAlign=middle;spacingTop=-1;spacingLeft=3;spacingRight=3;rotatable=0;labelPosition=right;points=[];portConstraint=eastwest;strokeColor=inherit;" parent="jr5ZodqF5-wsXopnZQ06-21" vertex="1">
                    <mxGeometry y="52" width="160" height="8" as="geometry"/>
                </mxCell>
                <mxCell id="jr5ZodqF5-wsXopnZQ06-24" value="title: varchar(20)" style="text;strokeColor=none;fillColor=none;align=left;verticalAlign=top;spacingLeft=4;spacingRight=4;overflow=hidden;rotatable=0;points=[[0,0.5],[1,0.5]];portConstraint=eastwest;whiteSpace=wrap;html=1;" parent="jr5ZodqF5-wsXopnZQ06-21" vertex="1">
                    <mxGeometry y="60" width="160" height="26" as="geometry"/>
                </mxCell>
                <mxCell id="jr5ZodqF5-wsXopnZQ06-25" value="description :varchar(120)" style="text;strokeColor=none;fillColor=none;align=left;verticalAlign=top;spacingLeft=4;spacingRight=4;overflow=hidden;rotatable=0;points=[[0,0.5],[1,0.5]];portConstraint=eastwest;whiteSpace=wrap;html=1;" parent="jr5ZodqF5-wsXopnZQ06-21" vertex="1">
                    <mxGeometry y="86" width="160" height="26" as="geometry"/>
                </mxCell>
                <mxCell id="jr5ZodqF5-wsXopnZQ06-26" value="purchase_date: int" style="text;strokeColor=none;fillColor=none;align=left;verticalAlign=top;spacingLeft=4;spacingRight=4;overflow=hidden;rotatable=0;points=[[0,0.5],[1,0.5]];portConstraint=eastwest;whiteSpace=wrap;html=1;" parent="jr5ZodqF5-wsXopnZQ06-21" vertex="1">
                    <mxGeometry y="112" width="160" height="26" as="geometry"/>
                </mxCell>
                <mxCell id="p-fpa5ibMZ4aYoW1wyBz-1" value="fk_author_id" style="text;strokeColor=none;fillColor=none;align=left;verticalAlign=top;spacingLeft=4;spacingRight=4;overflow=hidden;rotatable=0;points=[[0,0.5],[1,0.5]];portConstraint=eastwest;whiteSpace=wrap;html=1;" parent="jr5ZodqF5-wsXopnZQ06-21" vertex="1">
                    <mxGeometry y="138" width="160" height="26" as="geometry"/>
                </mxCell>
                <mxCell id="Mfi6zCDybO7jgiqRQoYi-10" value="Details" style="swimlane;fontStyle=1;align=center;verticalAlign=top;childLayout=stackLayout;horizontal=1;startSize=26;horizontalStack=0;resizeParent=1;resizeParentMax=0;resizeLast=0;collapsible=1;marginBottom=0;whiteSpace=wrap;html=1;" parent="1" vertex="1">
                    <mxGeometry x="300" y="122" width="160" height="164" as="geometry"/>
                </mxCell>
                <mxCell id="Mfi6zCDybO7jgiqRQoYi-11" value="details.id" style="text;strokeColor=none;fillColor=none;align=left;verticalAlign=top;spacingLeft=4;spacingRight=4;overflow=hidden;rotatable=0;points=[[0,0.5],[1,0.5]];portConstraint=eastwest;whiteSpace=wrap;html=1;" parent="Mfi6zCDybO7jgiqRQoYi-10" vertex="1">
                    <mxGeometry y="26" width="160" height="26" as="geometry"/>
                </mxCell>
                <mxCell id="Mfi6zCDybO7jgiqRQoYi-12" value="" style="line;strokeWidth=1;fillColor=none;align=left;verticalAlign=middle;spacingTop=-1;spacingLeft=3;spacingRight=3;rotatable=0;labelPosition=right;points=[];portConstraint=eastwest;strokeColor=inherit;" parent="Mfi6zCDybO7jgiqRQoYi-10" vertex="1">
                    <mxGeometry y="52" width="160" height="8" as="geometry"/>
                </mxCell>
                <mxCell id="Mfi6zCDybO7jgiqRQoYi-14" value="description :text" style="text;strokeColor=none;fillColor=none;align=left;verticalAlign=top;spacingLeft=4;spacingRight=4;overflow=hidden;rotatable=0;points=[[0,0.5],[1,0.5]];portConstraint=eastwest;whiteSpace=wrap;html=1;" parent="Mfi6zCDybO7jgiqRQoYi-10" vertex="1">
                    <mxGeometry y="60" width="160" height="26" as="geometry"/>
                </mxCell>
                <mxCell id="Mfi6zCDybO7jgiqRQoYi-16" value="fk_author_id: id" style="text;strokeColor=none;fillColor=none;align=left;verticalAlign=top;spacingLeft=4;spacingRight=4;overflow=hidden;rotatable=0;points=[[0,0.5],[1,0.5]];portConstraint=eastwest;whiteSpace=wrap;html=1;" parent="Mfi6zCDybO7jgiqRQoYi-10" vertex="1">
                    <mxGeometry y="86" width="160" height="26" as="geometry"/>
                </mxCell>
                <mxCell id="LGSB9XpPh6GmW-s-AwYC-1" value="fk_book_id :id" style="text;strokeColor=none;fillColor=none;align=left;verticalAlign=top;spacingLeft=4;spacingRight=4;overflow=hidden;rotatable=0;points=[[0,0.5],[1,0.5]];portConstraint=eastwest;whiteSpace=wrap;html=1;" parent="Mfi6zCDybO7jgiqRQoYi-10" vertex="1">
                    <mxGeometry y="112" width="160" height="26" as="geometry"/>
                </mxCell>
                <mxCell id="LGSB9XpPh6GmW-s-AwYC-2" value="fk_chapter_id: int" style="text;strokeColor=none;fillColor=none;align=left;verticalAlign=top;spacingLeft=4;spacingRight=4;overflow=hidden;rotatable=0;points=[[0,0.5],[1,0.5]];portConstraint=eastwest;whiteSpace=wrap;html=1;" parent="Mfi6zCDybO7jgiqRQoYi-10" vertex="1">
                    <mxGeometry y="138" width="160" height="26" as="geometry"/>
                </mxCell>
                <mxCell id="LGSB9XpPh6GmW-s-AwYC-3" style="edgeStyle=none;curved=1;rounded=0;orthogonalLoop=1;jettySize=auto;html=1;exitX=1;exitY=0.5;exitDx=0;exitDy=0;entryX=0.038;entryY=0.192;entryDx=0;entryDy=0;entryPerimeter=0;fontSize=12;startSize=8;endSize=8;" parent="1" source="p-fpa5ibMZ4aYoW1wyBz-1" target="LGSB9XpPh6GmW-s-AwYC-1" edge="1">
                    <mxGeometry relative="1" as="geometry"/>
                </mxCell>
                <mxCell id="LGSB9XpPh6GmW-s-AwYC-4" style="edgeStyle=orthogonalEdgeStyle;rounded=0;orthogonalLoop=1;jettySize=auto;html=1;exitX=1;exitY=0.5;exitDx=0;exitDy=0;fontSize=12;startSize=8;endSize=8;entryX=1;entryY=0.5;entryDx=0;entryDy=0;" parent="1" target="LGSB9XpPh6GmW-s-AwYC-2" edge="1">
                    <mxGeometry relative="1" as="geometry">
                        <mxPoint x="529" y="241" as="targetPoint"/>
                        <mxPoint x="424" y="6" as="sourcePoint"/>
                        <Array as="points">
                            <mxPoint x="518" y="6"/>
                            <mxPoint x="518" y="134"/>
                            <mxPoint x="480" y="134"/>
                            <mxPoint x="480" y="273"/>
                        </Array>
                    </mxGeometry>
                </mxCell>
            </root>
        </mxGraphModel>
    </diagram>
</mxfile>